<?xml version="1.0" encoding="utf-8"?>
<!-- Generator: Adobe Illustrator 28.1.0, SVG Export Plug-In . SVG Version: 6.00 Build 0)  -->
<svg version="1.1" id="Layer_1" xmlns="http://www.w3.org/2000/svg" xmlns:xlink="http://www.w3.org/1999/xlink" x="0px" y="0px"
	 viewBox="-100 -75 440 400" style="enable-background:new 0 0 240 234;" xml:space="preserve">
<style type="text/css">
	.st0{fill:#001E36;}
	.st1{fill:#31A8FF;}



svg:hover {
    transition: transform 2s ease-in-out; 
   
}

svg:hover  {
    cursor: pointer; 
    transform: rotate(360deg) scale(2);
    transition: transform 2s ease-in-out; 
    animation: scaleUpDownWithShadow 2s ease-in-out infinite; 
    box-shadow: 10px ;
    }
 @keyframes  scaleUpDownWithShadow{
 0% {
    transform: scale(1); 
    filter: drop-shadow(0 0 0px rgba(0, 0, 0, 0)); 
}
50% {
    transform: scale(1.2); 
    filter: drop-shadow(0 0 20px rgba(0, 0, 0, 1)); 
}
100% {
    transform: scale(1); 
    filter: drop-shadow(0 0 0px rgba(0, 0, 0, 0)); 
} }

</style>

<script>
     
      let thePath = document.querySelector('#Layer_1');

      
      function logMyId() {        
        console.log("You clicked on the Adobe Photoshop icon");
      }

     
      document.addEventListener('click', logMyId);
      </script>



<g id="Layer_2_1_">
	<g id="Surfaces">
		<g id="Photo_Surface">
			<g id="Outline_no_shadow">
				<path class="st0" d="M68.5,27.9h115.6c17.5,0,31.7,14.2,31.7,31.7v111.1c0,17.5-14.2,31.7-31.7,31.7H68.5
					c-17.5,0-31.7-14.2-31.7-31.7V59.6C36.8,42.1,51,27.9,68.5,27.9z"/>
			</g>
		</g>
	</g>
</g>


<g id="ps">
	<g id="Ps">
		<path class="st1" d="M77.1,150.3V73.5c0-0.5,0.2-0.8,0.7-0.8c1.3,0,2.5,0,4.2-0.1c1.8-0.1,3.7-0.1,5.7-0.1c2-0.1,4.2-0.1,6.5-0.1
			c2.3-0.1,4.5-0.1,6.8-0.1c6.1,0,11.2,0.7,15.4,2.3c3.7,1.3,7.2,3.4,10,6.1c2.4,2.4,4.3,5.3,5.4,8.5c1.1,3.1,1.7,6.3,1.7,9.7
			c0,6.4-1.5,11.7-4.5,15.9c-3,4.2-7.2,7.3-12,9.1c-5.1,1.9-10.7,2.5-16.8,2.5c-1.8,0-3,0-3.7-0.1s-1.8-0.1-3.2-0.1v23.9
			c0.1,0.5-0.3,1-0.8,1c-0.1,0-0.1,0-0.3,0H78C77.4,151.2,77.1,150.9,77.1,150.3z M93.3,87.1v25.1c1,0.1,2,0.1,2.9,0.1h4
			c2.9,0,5.8-0.4,8.6-1.3c2.4-0.7,4.5-2.1,6.1-4c1.6-1.9,2.3-4.4,2.3-7.7c0.1-2.3-0.5-4.6-1.7-6.6c-1.3-1.9-3.1-3.4-5.2-4.3
			c-2.8-1.1-5.7-1.6-8.8-1.5c-1.9,0-3.7,0-5.1,0.1C94.9,87,93.8,87,93.3,87.1L93.3,87.1z"/>
		<path class="st1" d="M180,107.6c-2.2-1.2-4.6-2-7.2-2.5c-2.8-0.6-5.5-1-8.4-1c-1.5-0.1-3.1,0.1-4.5,0.5c-1,0.2-1.8,0.7-2.3,1.5
			c-0.4,0.6-0.6,1.3-0.6,2c0,0.7,0.3,1.3,0.7,1.9c0.7,0.8,1.6,1.5,2.5,2c1.7,0.9,3.5,1.7,5.3,2.5c4,1.3,7.9,3.2,11.5,5.4
			c2.5,1.6,4.5,3.7,5.9,6.2c1.2,2.4,1.8,5,1.7,7.7c0.1,3.5-1,7-2.9,9.9c-2.1,3-5,5.3-8.4,6.6c-3.7,1.6-8.1,2.4-13.5,2.4
			c-3.4,0-6.8-0.3-10.1-1c-2.6-0.4-5.2-1.3-7.6-2.4c-0.5-0.3-0.9-0.8-0.8-1.4v-13c0-0.2,0.1-0.5,0.3-0.7c0.2-0.1,0.4-0.1,0.7,0.1
			c2.9,1.7,6,2.9,9.2,3.7c2.8,0.7,5.8,1.1,8.8,1.1c2.8,0,4.8-0.4,6.2-1c1.2-0.5,2-1.8,2-3.1c0-1-0.6-2-1.8-3s-3.7-2.1-7.3-3.5
			c-3.8-1.3-7.3-3.1-10.6-5.4c-2.3-1.6-4.3-3.8-5.7-6.3c-1.2-2.4-1.8-5-1.7-7.6c0-3.2,0.9-6.3,2.5-9c1.9-3,4.6-5.4,7.8-6.9
			c3.5-1.8,7.9-2.6,13.2-2.6c3.1,0,6.2,0.2,9.2,0.7c2.2,0.3,4.4,0.9,6.4,1.7c0.3,0.1,0.6,0.4,0.7,0.7c0.1,0.3,0.1,0.6,0.1,0.9v12.2
			c0,0.3-0.1,0.6-0.4,0.7C180.7,107.8,180.3,107.8,180,107.6z"/>
	</g>
</g>
</svg>
